<svg width="119" height="197" viewBox="0 0 119 197" fill="none" xmlns="http://www.w3.org/2000/svg">
<g opacity="0.2" clip-path="url(#clip0_3610_11744)">
<path d="M78.4635 78.248H38.8896L38.8896 38.7362L78.4635 38.7362V78.248Z" stroke="#2F3524" stroke-width="0.48524" stroke-miterlimit="10"/>
<path d="M78.4121 68.2144V78.299C56.5554 78.299 38.8383 60.6096 38.8383 38.7871H48.9387C48.9387 55.0437 62.13 68.2144 78.4121 68.2144Z" fill="#AAE882" stroke="#2F3524" stroke-width="0.48524" stroke-miterlimit="10"/>
<path d="M48.9387 38.7871H59.0391C59.0391 49.4779 67.7045 58.1298 78.4121 58.1298V68.2144C62.13 68.2144 48.9387 55.0437 48.9387 38.7871Z" fill="#FFDE3E" stroke="#2F3524" stroke-width="0.48524" stroke-miterlimit="10"/>
<path d="M78.4121 48.0451V58.1298C67.7045 58.1298 59.0391 49.4779 59.0391 38.7871H69.1396C69.1396 43.9121 73.2791 48.0451 78.4121 48.0451Z" fill="#5A8E38" stroke="#2F3524" stroke-width="0.48524" stroke-miterlimit="10"/>
<path d="M69.1396 38.7871H78.4121V48.0451C73.2791 48.0451 69.1396 43.9121 69.1396 38.7871Z" fill="white" stroke="#2F3524" stroke-width="0.48524" stroke-miterlimit="10"/>
<path d="M107.885 -0.724609H117.986C117.986 21.0978 100.269 38.7872 78.412 38.7872V28.7026C94.6941 28.7026 107.885 15.532 107.885 -0.724609Z" fill="#AAE882" stroke="#2F3524" stroke-width="0.48524" stroke-miterlimit="10"/>
<path d="M78.4114 28.7029V18.6182C89.1189 18.6182 97.7843 9.96642 97.7843 -0.724365H107.885C107.885 15.5322 94.6935 28.7029 78.4114 28.7029Z" fill="#FFDE3E" stroke="#2F3524" stroke-width="0.48524" stroke-miterlimit="10"/>
<path d="M87.7389 -0.724365H97.7842C97.7842 9.96642 89.1188 18.6182 78.4112 18.6182V8.58874C83.5442 8.58874 87.7389 4.4006 87.7389 -0.724365Z" fill="#5A8E38" stroke="#2F3524" stroke-width="0.48524" stroke-miterlimit="10"/>
<path d="M78.4115 8.58874V-0.724365H87.7393C87.7393 4.4006 83.5445 8.58874 78.4115 8.58874Z" fill="white" stroke="#2F3524" stroke-width="0.48524" stroke-miterlimit="10"/>
<path d="M38.8775 78.248H-0.696289L-0.696289 38.7362L38.8775 38.7362L38.8775 78.248Z" fill="#FFDE3E" stroke="#2F3524" stroke-width="0.48524" stroke-miterlimit="10"/>
<path d="M16.4295 45.3452C17.8094 43.692 20.3483 43.692 21.7281 45.3452C24.3222 48.4863 25.978 53.1704 25.978 58.4056C25.978 65.2389 23.1632 71.1353 19.0788 73.9458C14.9945 71.1353 12.1796 65.2389 12.1796 58.4056C12.1796 53.1704 13.8354 48.4863 16.4295 45.3452Z" fill="#AAE882" stroke="#2F3524" stroke-width="0.48524" stroke-miterlimit="10"/>
<path d="M19.0235 74.4417C20.2929 70.0331 10.8548 62.1528 11.5171 54.9889C3.67965 66.7818 11.186 78.5196 19.0235 74.4417Z" fill="#5A8E38" stroke="#2F3524" stroke-width="0.427112" stroke-miterlimit="10" stroke-linecap="round" stroke-linejoin="round"/>
<path d="M19.2995 74.4417C18.0301 70.0331 27.4682 62.1528 26.8059 54.9889C34.6986 66.7818 27.137 78.5196 19.2995 74.4417Z" fill="#5A8E38" stroke="#2F3524" stroke-width="0.427112" stroke-miterlimit="10" stroke-linecap="round" stroke-linejoin="round"/>
<path d="M12.2895 56.091C12.2895 57.3585 25.9224 57.4687 25.9224 56.091" stroke="#2F3524" stroke-width="0.340818" stroke-miterlimit="10"/>
<path d="M14.884 49.919C14.884 50.6905 23.2734 50.7456 23.2734 49.919" stroke="#2F3524" stroke-width="0.340818" stroke-miterlimit="10" stroke-linecap="round"/>
<path d="M14.884 64.0264C14.884 64.7979 23.2734 64.853 23.2734 64.0264" stroke="#2F3524" stroke-width="0.340818" stroke-miterlimit="10" stroke-linecap="round"/>
<path d="M19.0786 72.7884V44.1327" stroke="#2F3524" stroke-width="0.340818" stroke-miterlimit="10"/>
<path d="M38.8775 117.772H-0.696289L-0.696289 78.2597H38.8775L38.8775 117.772Z" fill="#AAE882" stroke="#2F3524" stroke-width="0.48524" stroke-miterlimit="10"/>
<path d="M32.9326 101.72C32.767 104.806 31.0008 107.781 28.0756 109.269C25.0951 110.812 21.7283 110.482 19.079 108.829C19.2446 105.743 21.0108 102.767 23.9361 101.279C26.9165 99.7909 30.3385 100.066 32.9326 101.72Z" fill="#5A8E38" stroke="#2F3524" stroke-width="0.371823" stroke-miterlimit="10"/>
<path d="M5.2255 101.72C5.39108 104.806 7.15728 107.781 10.0825 109.269C13.0078 110.757 16.4298 110.482 19.0791 108.829C18.9135 105.743 17.1473 102.767 14.2221 101.279C11.2968 99.7909 7.87479 100.066 5.2255 101.72Z" fill="#5A8E38" stroke="#2F3524" stroke-width="0.371823" stroke-miterlimit="10"/>
<path d="M27.7998 93.619C27.6894 95.5478 26.5855 97.4214 24.709 98.3583C22.8324 99.2951 20.6798 99.1298 19.024 98.0827C19.1344 96.154 20.2383 94.2803 22.1149 93.3435C24.0466 92.4067 26.1992 92.572 27.7998 93.619Z" fill="#5A8E38" stroke="#2F3524" stroke-width="0.371823" stroke-miterlimit="10"/>
<path d="M10.358 93.619C10.4684 95.5478 11.5723 97.4214 13.4489 98.3583C15.3254 99.2951 17.478 99.1298 19.1338 98.0827C19.0234 96.154 17.9195 94.2803 16.043 93.3435C14.1664 92.4067 12.0138 92.572 10.358 93.619Z" fill="#5A8E38" stroke="#2F3524" stroke-width="0.371823" stroke-miterlimit="10"/>
<path d="M19.0792 82.322C17.3682 83.314 16.2644 85.1325 16.2644 87.2266C16.2644 89.3206 17.4234 91.1392 19.0792 92.1311C20.7902 91.1392 21.8941 89.3206 21.8941 87.2266C21.9493 85.1325 20.7902 83.314 19.0792 82.322Z" fill="#5A8E38" stroke="#2F3524" stroke-width="0.371823" stroke-miterlimit="10"/>
<path d="M19.0791 114.78V92.1312" stroke="#2F3524" stroke-width="0.371823" stroke-miterlimit="10" stroke-linecap="round" stroke-linejoin="round"/>
<path d="M38.8775 38.7797L-0.696289 38.7797L-0.696289 -0.732162L38.8775 -0.732162L38.8775 38.7797Z" fill="#FFDE3E" stroke="#2F3524" stroke-width="0.48524" stroke-miterlimit="10"/>
<path d="M19.0793 3.90448C19.0793 3.90448 28.959 7.37623 28.959 14.8708V23.3573C28.959 24.9554 28.0759 26.4984 26.6961 27.2699L21.563 30.1906V36.583H16.6508V30.1906L11.5178 27.2699C10.0828 26.4433 9.25486 24.9554 9.25486 23.3573V14.8708C9.25486 7.43134 19.0793 3.90448 19.0793 3.90448Z" fill="#5A8E38" stroke="#2F3524" stroke-width="0.371823" stroke-miterlimit="10"/>
<path d="M15.657 35.3706H22.501V38.7873H15.657V35.3706Z" fill="#AAE882" stroke="#2F3524" stroke-width="0.48524" stroke-miterlimit="10"/>
<path d="M78.4635 38.7797L38.8896 38.7797L38.8896 -0.732162L78.4635 -0.732162V38.7797Z" fill="#AAE882" stroke="#2F3524" stroke-width="0.48524" stroke-miterlimit="10"/>
<path d="M72.5068 22.7512C72.3413 25.8372 70.5751 28.813 67.6498 30.3009C64.7245 31.7888 61.3025 31.5133 58.6532 29.8601C58.8188 26.7741 60.585 23.7983 63.5103 22.3104C66.4907 20.8225 69.9127 21.098 72.5068 22.7512Z" fill="#5A8E38" stroke="#2F3524" stroke-width="0.371823" stroke-miterlimit="10"/>
<path d="M44.7997 22.7512C44.9653 25.8372 46.7315 28.813 49.6568 30.3009C52.582 31.7888 56.0592 31.5684 58.6533 29.8601C58.4877 26.7741 56.7215 23.7983 53.7963 22.3104C50.8158 20.8225 47.3938 21.098 44.7997 22.7512Z" fill="#5A8E38" stroke="#2F3524" stroke-width="0.371823" stroke-miterlimit="10"/>
<path d="M67.374 14.6506C67.2636 16.5793 66.1598 18.453 64.2832 19.3898C62.4066 20.3266 60.254 20.1613 58.5982 19.1142C58.7086 17.1855 59.8125 15.3119 61.6891 14.375C63.5657 13.4382 65.7182 13.6035 67.374 14.6506Z" fill="#5A8E38" stroke="#2F3524" stroke-width="0.371823" stroke-miterlimit="10"/>
<path d="M49.9332 14.6506C50.0436 16.5793 51.1475 18.453 53.024 19.3898C54.9006 20.3266 57.0532 20.1613 58.709 19.1142C58.5986 17.1855 57.4947 15.3119 55.6181 14.375C53.7416 13.4382 51.589 13.6035 49.9332 14.6506Z" fill="#5A8E38" stroke="#2F3524" stroke-width="0.371823" stroke-miterlimit="10"/>
<path d="M58.6539 3.35349C56.9429 4.34541 55.839 6.16395 55.839 8.25802C55.839 10.3521 56.9981 12.1706 58.6539 13.1626C60.3649 12.1706 61.4688 10.3521 61.4688 8.25802C61.4688 6.16395 60.3649 4.34541 58.6539 3.35349Z" fill="#5A8E38" stroke="#2F3524" stroke-width="0.371823" stroke-miterlimit="10"/>
<path d="M58.6533 35.8116V13.1625" stroke="#2F3524" stroke-width="0.371823" stroke-miterlimit="10" stroke-linecap="round" stroke-linejoin="round"/>
</g>
<defs>
<clipPath id="clip0_3610_11744">
<rect width="158.792" height="198" fill="white" transform="matrix(-1 0 0 1 118.262 -1)"/>
</clipPath>
</defs>
</svg>
