<svg width="81" height="197" viewBox="0 0 81 197" fill="none" xmlns="http://www.w3.org/2000/svg">
<g opacity="0.2" clip-path="url(#clip0_3610_11824)">
<path d="M40.6028 120.151H80.9761V160.461H40.6028L40.6028 120.151Z" stroke="#2F3524" stroke-width="0.495043" stroke-miterlimit="10"/>
<path d="M40.6548 130.387V120.099C62.953 120.099 81.0281 138.146 81.0281 160.409H70.7236C70.7236 143.824 57.2658 130.387 40.6548 130.387Z" fill="#AAE882" stroke="#2F3524" stroke-width="0.495043" stroke-miterlimit="10"/>
<path d="M70.7236 160.409H60.4191C60.4191 149.502 51.5787 140.676 40.6548 140.676V130.387C57.2658 130.387 70.7236 143.824 70.7236 160.409Z" fill="#FFDE3E" stroke="#2F3524" stroke-width="0.495043" stroke-miterlimit="10"/>
<path d="M40.6548 150.964V140.676C51.5787 140.676 60.4191 149.502 60.4191 160.409H50.1146C50.1146 155.181 45.8915 150.964 40.6548 150.964Z" fill="#5A8E38" stroke="#2F3524" stroke-width="0.495043" stroke-miterlimit="10"/>
<path d="M50.1146 160.409H40.6548V150.964C45.8915 150.964 50.1146 155.181 50.1146 160.409Z" fill="white" stroke="#2F3524" stroke-width="0.495043" stroke-miterlimit="10"/>
<path d="M80.9875 -0.702606L121.361 -0.702606V39.6074L80.9875 39.6074V-0.702606Z" fill="#FFDE3E" stroke="#2F3524" stroke-width="0.495043" stroke-miterlimit="10"/>
<path d="M10.5857 200.719H0.28125C0.28125 178.456 18.3563 160.409 40.6545 160.409V170.697C24.0435 170.697 10.5857 184.134 10.5857 200.719Z" fill="#AAE882" stroke="#2F3524" stroke-width="0.495043" stroke-miterlimit="10"/>
<path d="M40.6557 170.697V180.985C29.7319 180.985 20.8914 189.812 20.8914 200.719H10.5869C10.5869 184.134 24.0447 170.697 40.6557 170.697Z" fill="#FFDE3E" stroke="#2F3524" stroke-width="0.495043" stroke-miterlimit="10"/>
<path d="M31.1393 200.719H20.8911C20.8911 189.812 29.7316 180.985 40.6555 180.985V191.218C35.4187 191.218 31.1393 195.49 31.1393 200.719Z" fill="#5A8E38" stroke="#2F3524" stroke-width="0.495043" stroke-miterlimit="10"/>
<path d="M40.6548 191.218V200.719H31.1387C31.1387 195.49 35.4181 191.218 40.6548 191.218Z" fill="white" stroke="#2F3524" stroke-width="0.495043" stroke-miterlimit="10"/>
<path d="M80.9875 120.151H121.361V160.461H80.9875V120.151Z" fill="#FFDE3E" stroke="#2F3524" stroke-width="0.495043" stroke-miterlimit="10"/>
<path d="M80.9875 79.829H121.361V120.139H80.9875V79.829Z" fill="#AAE882" stroke="#2F3524" stroke-width="0.495043" stroke-miterlimit="10"/>
<path d="M80.9875 160.417H121.361V200.727H80.9875V160.417Z" fill="#FFDE3E" stroke="#2F3524" stroke-width="0.495043" stroke-miterlimit="10"/>
<path d="M40.6028 200.727H80.9761V160.417H40.6028L40.6028 200.727Z" fill="#AAE882" stroke="#2F3524" stroke-width="0.495043" stroke-miterlimit="10"/>
<path d="M46.6797 184.375C46.8486 187.523 48.6505 190.559 51.6348 192.077C54.6192 193.595 58.1103 193.314 60.8132 191.627C60.6442 188.479 58.8424 185.443 55.858 183.925C52.8173 182.407 49.3262 182.688 46.6797 184.375Z" fill="#5A8E38" stroke="#2F3524" stroke-width="0.379335" stroke-miterlimit="10"/>
<path d="M74.9465 184.375C74.7775 187.523 72.9757 190.559 69.9913 192.077C67.0069 193.595 63.4595 193.37 60.813 191.627C60.9819 188.479 62.7838 185.443 65.7682 183.925C68.8088 182.407 72.3 182.688 74.9465 184.375Z" fill="#5A8E38" stroke="#2F3524" stroke-width="0.379335" stroke-miterlimit="10"/>
<path d="M51.916 176.11C52.0286 178.078 53.1548 179.99 55.0693 180.945C56.9838 181.901 59.1798 181.733 60.8691 180.664C60.7565 178.697 59.6303 176.785 57.7158 175.829C55.8013 174.874 53.6053 175.042 51.916 176.11Z" fill="#5A8E38" stroke="#2F3524" stroke-width="0.379335" stroke-miterlimit="10"/>
<path d="M69.7094 176.11C69.5968 178.078 68.4706 179.99 66.5561 180.945C64.6416 181.901 62.4456 181.733 60.7563 180.664C60.869 178.697 61.9951 176.785 63.9096 175.829C65.8241 174.874 68.0202 175.042 69.7094 176.11Z" fill="#5A8E38" stroke="#2F3524" stroke-width="0.379335" stroke-miterlimit="10"/>
<path d="M60.8127 164.585C62.5582 165.597 63.6844 167.452 63.6844 169.589C63.6844 171.725 62.5019 173.58 60.8127 174.592C59.0671 173.58 57.9409 171.725 57.9409 169.589C57.9409 167.452 59.0671 165.597 60.8127 164.585Z" fill="#5A8E38" stroke="#2F3524" stroke-width="0.379335" stroke-miterlimit="10"/>
<path d="M60.813 197.699V174.592" stroke="#2F3524" stroke-width="0.379335" stroke-miterlimit="10" stroke-linecap="round" stroke-linejoin="round"/>
</g>
<defs>
<clipPath id="clip0_3610_11824">
<rect width="162" height="202" fill="white" transform="matrix(1 0 0 -1 0 201)"/>
</clipPath>
</defs>
</svg>
