<svg width="170" height="126" viewBox="0 0 170 126" fill="none" xmlns="http://www.w3.org/2000/svg">
<g opacity="0.12" clip-path="url(#clip0_2187_12695)">
<path d="M43.7036 84.329H86.417V41.6156L43.7036 41.6156L43.7036 84.329Z" stroke="#2F3524" stroke-width="0.610676" stroke-miterlimit="10"/>
<path d="M43.7593 73.4822V84.3839C67.3499 84.3839 86.4726 65.2612 86.4726 41.6705H75.5709C75.5709 59.2444 61.3331 73.4822 43.7593 73.4822Z" fill="#AAE882" stroke="#2F3524" stroke-width="0.610676" stroke-miterlimit="10"/>
<path d="M75.5709 41.6705H64.6692C64.6692 53.2276 55.3163 62.5804 43.7593 62.5804V73.4822C61.3331 73.4822 75.5709 59.2444 75.5709 41.6705Z" fill="#FFDE3E" stroke="#2F3524" stroke-width="0.610676" stroke-miterlimit="10"/>
<path d="M43.7593 51.6787V62.5804C55.3163 62.5804 64.6692 53.2276 64.6692 41.6705H53.7674C53.7674 47.2108 49.2995 51.6787 43.7593 51.6787Z" fill="#5A8E38" stroke="#2F3524" stroke-width="0.610676" stroke-miterlimit="10"/>
<path d="M53.7674 41.6705H43.7593V51.6787C49.2995 51.6787 53.7674 47.2108 53.7674 41.6705Z" fill="white" stroke="#2F3524" stroke-width="0.610676" stroke-miterlimit="10"/>
<path d="M11.9467 -1.0426H1.04492C1.04492 22.548 20.1676 41.6708 43.7583 41.6708V30.769C26.1844 30.769 11.9467 16.5312 11.9467 -1.0426Z" fill="#AAE882" stroke="#2F3524" stroke-width="0.610676" stroke-miterlimit="10"/>
<path d="M43.7589 30.7691V19.8674C32.2019 19.8674 22.849 10.5146 22.849 -1.04248H11.9473C11.9473 16.5314 26.1851 30.7691 43.7589 30.7691Z" fill="#FFDE3E" stroke="#2F3524" stroke-width="0.610676" stroke-miterlimit="10"/>
<path d="M33.6918 -1.04248H22.8496C22.8496 10.5146 32.2025 19.8674 43.7595 19.8674V9.02524C38.2193 9.02524 33.6918 4.49775 33.6918 -1.04248Z" fill="#5A8E38" stroke="#2F3524" stroke-width="0.610676" stroke-miterlimit="10"/>
<path d="M43.7586 9.02524V-1.04248H33.6909C33.6909 4.49775 38.2184 9.02524 43.7586 9.02524Z" fill="white" stroke="#2F3524" stroke-width="0.610676" stroke-miterlimit="10"/>
<path d="M129.096 127.055H171.81V84.3415H129.096V127.055Z" fill="#FFDE3E" stroke="#2F3524" stroke-width="0.610676" stroke-miterlimit="10"/>
<path d="M150.453 89.3885C150.453 89.3885 139.789 93.1415 139.789 101.243V110.418C139.789 112.145 140.742 113.813 142.232 114.647L147.772 117.804V124.715H153.074V117.804L158.614 114.647C160.163 113.754 161.056 112.145 161.056 110.418V101.243C161.116 93.1415 150.453 89.3885 150.453 89.3885Z" fill="#5A8E38" stroke="#2F3524" stroke-width="0.467941" stroke-miterlimit="10"/>
<path d="M154.147 123.345H146.76V127.038H154.147V123.345Z" fill="#AAE882" stroke="#2F3524" stroke-width="0.610676" stroke-miterlimit="10"/>
<path d="M86.4292 84.3289H129.143V41.6155L86.4292 41.6155V84.3289Z" fill="#FFDE3E" stroke="#2F3524" stroke-width="0.610676" stroke-miterlimit="10"/>
<path d="M110.658 48.7599C109.168 46.9727 106.428 46.9727 104.939 48.7599C102.139 52.1555 100.352 57.2191 100.352 62.8785C100.352 70.2655 103.39 76.6397 107.798 79.6779C112.206 76.6397 115.245 70.2655 115.245 62.8785C115.245 57.2191 113.457 52.1555 110.658 48.7599Z" fill="#AAE882" stroke="#2F3524" stroke-width="0.610676" stroke-miterlimit="10"/>
<path d="M107.858 80.2141C106.488 75.4483 116.675 66.9295 115.96 59.1851C124.419 71.9335 116.317 84.6224 107.858 80.2141Z" fill="#5A8E38" stroke="#2F3524" stroke-width="0.537521" stroke-miterlimit="10" stroke-linecap="round" stroke-linejoin="round"/>
<path d="M107.56 80.2141C108.931 75.4483 98.7438 66.9295 99.4587 59.1851C90.9398 71.9335 99.1012 84.6224 107.56 80.2141Z" fill="#5A8E38" stroke="#2F3524" stroke-width="0.537521" stroke-miterlimit="10" stroke-linecap="round" stroke-linejoin="round"/>
<path d="M115.126 60.3765C115.126 61.7467 100.412 61.8658 100.412 60.3765" stroke="#2F3524" stroke-width="0.428921" stroke-miterlimit="10"/>
<path d="M112.326 53.7044C112.326 54.5384 103.271 54.598 103.271 53.7044" stroke="#2F3524" stroke-width="0.428921" stroke-miterlimit="10" stroke-linecap="round"/>
<path d="M112.326 68.9548C112.326 69.7888 103.271 69.8484 103.271 68.9548" stroke="#2F3524" stroke-width="0.428921" stroke-miterlimit="10" stroke-linecap="round"/>
<path d="M107.799 78.4269V47.4493" stroke="#2F3524" stroke-width="0.428921" stroke-miterlimit="10"/>
<path d="M86.4292 127.055H129.143V84.3415H86.4292V127.055Z" fill="#AAE882" stroke="#2F3524" stroke-width="0.610676" stroke-miterlimit="10"/>
<path d="M92.8472 109.703C93.0259 113.039 94.9322 116.256 98.0895 117.864C101.306 119.532 104.94 119.175 107.8 117.387C107.621 114.051 105.715 110.834 102.557 109.226C99.3405 107.618 95.6471 107.915 92.8472 109.703Z" fill="#5A8E38" stroke="#2F3524" stroke-width="0.467941" stroke-miterlimit="10"/>
<path d="M122.753 109.703C122.575 113.039 120.668 116.256 117.511 117.864C114.354 119.472 110.66 119.175 107.801 117.387C107.979 114.051 109.886 110.834 113.043 109.226C116.2 107.618 119.894 107.915 122.753 109.703Z" fill="#5A8E38" stroke="#2F3524" stroke-width="0.467941" stroke-miterlimit="10"/>
<path d="M98.3862 100.945C98.5054 103.03 99.6968 105.056 101.722 106.069C103.748 107.081 106.071 106.903 107.858 105.771C107.739 103.686 106.548 101.66 104.522 100.648C102.437 99.6349 100.114 99.8136 98.3862 100.945Z" fill="#5A8E38" stroke="#2F3524" stroke-width="0.467941" stroke-miterlimit="10"/>
<path d="M117.213 100.945C117.094 103.03 115.902 105.056 113.877 106.069C111.851 107.081 109.528 106.903 107.741 105.771C107.86 103.686 109.051 101.66 111.077 100.648C113.102 99.6349 115.426 99.8136 117.213 100.945Z" fill="#5A8E38" stroke="#2F3524" stroke-width="0.467941" stroke-miterlimit="10"/>
<path d="M107.8 88.733C109.646 89.8053 110.838 91.7712 110.838 94.035C110.838 96.2987 109.587 98.2646 107.8 99.3369C105.953 98.2646 104.761 96.2987 104.761 94.035C104.702 91.7712 105.953 89.8053 107.8 88.733Z" fill="#5A8E38" stroke="#2F3524" stroke-width="0.467941" stroke-miterlimit="10"/>
<path d="M107.801 123.821V99.337" stroke="#2F3524" stroke-width="0.467941" stroke-miterlimit="10" stroke-linecap="round" stroke-linejoin="round"/>
<path d="M129.096 41.6624L171.81 41.6624V-1.05094L129.096 -1.05094V41.6624Z" fill="#AAE882" stroke="#2F3524" stroke-width="0.610676" stroke-miterlimit="10"/>
<path d="M150.453 3.96149C150.453 3.96149 139.789 7.71454 139.789 15.8164V24.9905C139.789 26.7181 140.742 28.3861 142.232 29.2202L147.772 32.3775V39.2879H153.074V32.3775L158.614 29.2202C160.163 28.3266 161.056 26.7181 161.056 24.9905V15.8164C161.116 7.77412 150.453 3.96149 150.453 3.96149Z" fill="#FFDE3E" stroke="#2F3524" stroke-width="0.467941" stroke-miterlimit="10"/>
<path d="M154.147 37.9773H146.76V41.6708H154.147V37.9773Z" fill="white" stroke="#2F3524" stroke-width="0.467941" stroke-miterlimit="10"/>
<path d="M86.4292 41.6624L129.143 41.6624V-1.051L86.4292 -1.051V41.6624Z" fill="#FFDE3E" stroke="#2F3524" stroke-width="0.610676" stroke-miterlimit="10"/>
<path d="M107.798 3.96149C107.798 3.96149 97.1348 7.71454 97.1348 15.8164V24.9905C97.1348 26.7181 98.0879 28.3861 99.5772 29.2202L105.117 32.3775V39.2879H110.419V32.3775L115.96 29.2202C117.508 28.3266 118.402 26.7181 118.402 24.9905V15.8164C118.402 7.77412 107.798 3.96149 107.798 3.96149Z" fill="#5A8E38" stroke="#2F3524" stroke-width="0.467941" stroke-miterlimit="10"/>
<path d="M111.491 37.9773H104.104V41.6708H111.491V37.9773Z" fill="#AAE882" stroke="#2F3524" stroke-width="0.610676" stroke-miterlimit="10"/>
<path d="M43.7036 41.6624L86.417 41.6624V-1.05094L43.7036 -1.05094L43.7036 41.6624Z" fill="#AAE882" stroke="#2F3524" stroke-width="0.610676" stroke-miterlimit="10"/>
<path d="M50.1328 24.3351C50.3115 27.6712 52.2178 30.8881 55.3752 32.4965C58.5325 34.105 62.226 33.8071 65.0855 32.02C64.9067 28.6839 63.0004 25.467 59.8431 23.8586C56.6262 22.2501 52.9327 22.548 50.1328 24.3351Z" fill="#5A8E38" stroke="#2F3524" stroke-width="0.467941" stroke-miterlimit="10"/>
<path d="M80.0381 24.3351C79.8594 27.6712 77.9531 30.8881 74.7957 32.4965C71.6384 34.105 67.8853 33.8667 65.0854 32.02C65.2642 28.6839 67.1705 25.467 70.3278 23.8586C73.5447 22.2501 77.2382 22.548 80.0381 24.3351Z" fill="#5A8E38" stroke="#2F3524" stroke-width="0.467941" stroke-miterlimit="10"/>
<path d="M55.6724 15.5782C55.7915 17.6632 56.983 19.6886 59.0084 20.7014C61.0339 21.7141 63.3572 21.5354 65.1444 20.4035C65.0252 18.3185 63.8338 16.293 61.8083 15.2803C59.7829 14.2676 57.4595 14.4463 55.6724 15.5782Z" fill="#5A8E38" stroke="#2F3524" stroke-width="0.467941" stroke-miterlimit="10"/>
<path d="M74.4964 15.5782C74.3773 17.6632 73.1858 19.6886 71.1604 20.7014C69.1349 21.7141 66.8116 21.5354 65.0244 20.4035C65.1436 18.3185 66.335 16.293 68.3605 15.2803C70.3859 14.2676 72.7092 14.4463 74.4964 15.5782Z" fill="#5A8E38" stroke="#2F3524" stroke-width="0.467941" stroke-miterlimit="10"/>
<path d="M65.0841 3.36578C66.9308 4.43809 68.1223 6.40397 68.1223 8.66772C68.1223 10.9315 66.8713 12.8974 65.0841 13.9697C63.2373 12.8974 62.0459 10.9315 62.0459 8.66772C62.0459 6.40397 63.2373 4.43809 65.0841 3.36578Z" fill="#5A8E38" stroke="#2F3524" stroke-width="0.467941" stroke-miterlimit="10"/>
<path d="M65.0854 38.4539V13.9697" stroke="#2F3524" stroke-width="0.467941" stroke-miterlimit="10" stroke-linecap="round" stroke-linejoin="round"/>
<path d="M129.096 84.329H171.81V41.6156L129.096 41.6156V84.329Z" fill="#AAE882" stroke="#2F3524" stroke-width="0.610676" stroke-miterlimit="10"/>
<path d="M151.108 55.2534C151.108 55.2534 151.882 50.6067 147.652 47.8068" stroke="#2F3524" stroke-width="0.467941" stroke-miterlimit="10" stroke-linecap="round" stroke-linejoin="round"/>
<path d="M164.036 64.6062C164.036 72.1123 157.959 78.1887 150.453 78.1887C142.947 78.1887 136.871 72.1123 136.871 64.6062C136.871 57.1 142.947 53.2874 150.453 53.2874C157.959 53.2874 164.036 57.1 164.036 64.6062Z" fill="#5A8E38" stroke="#2F3524" stroke-width="0.467941" stroke-miterlimit="10"/>
<path d="M160.7 50.3089C160.402 52.394 159.091 54.3003 157.006 55.1939C154.921 56.0875 152.598 55.6704 150.93 54.4194C151.228 52.3344 152.538 50.4281 154.623 49.5345C156.708 48.7005 159.032 49.0579 160.7 50.3089Z" fill="#AAE882" stroke="#2F3524" stroke-width="0.467941" stroke-miterlimit="10"/>
</g>
<defs>
<clipPath id="clip0_2187_12695">
<rect width="170.234" height="126" fill="white"/>
</clipPath>
</defs>
</svg>
