<svg width="97" height="72" viewBox="0 0 97 72" fill="none" xmlns="http://www.w3.org/2000/svg">
<g opacity="0.2" clip-path="url(#clip0_2273_14176)">
<path d="M24.8826 23.9708L48.8667 23.9708V47.9174H24.8826L24.8826 23.9708Z" stroke="#2F3524" stroke-width="0.294085" stroke-miterlimit="10"/>
<path d="M24.9141 30.0519V23.94C38.1605 23.94 48.8982 34.6608 48.8982 47.8865H42.7767C42.7767 38.034 34.782 30.0519 24.9141 30.0519Z" fill="#AAE882" stroke="#2F3524" stroke-width="0.294085" stroke-miterlimit="10"/>
<path d="M42.7767 47.8865H36.6553C36.6553 41.4073 31.4035 36.1637 24.9141 36.1637V30.0519C34.782 30.0519 42.7767 38.034 42.7767 47.8865Z" fill="#FFDE3E" stroke="#2F3524" stroke-width="0.294085" stroke-miterlimit="10"/>
<path d="M24.9141 42.2756V36.1637C31.4035 36.1637 36.6553 41.4073 36.6553 47.8865H30.5338C30.5338 44.7805 28.025 42.2756 24.9141 42.2756Z" fill="#5A8E38" stroke="#2F3524" stroke-width="0.294085" stroke-miterlimit="10"/>
<path d="M30.5338 47.8865H24.9141V42.2756C28.025 42.2756 30.5338 44.7805 30.5338 47.8865Z" fill="white" stroke="#2F3524" stroke-width="0.294085" stroke-miterlimit="10"/>
<path d="M7.05067 71.8331H0.929199C0.929199 58.6074 11.6669 47.8865 24.9133 47.8865V53.9984C15.0454 53.9984 7.05067 61.9806 7.05067 71.8331Z" fill="#AAE882" stroke="#2F3524" stroke-width="0.294085" stroke-miterlimit="10"/>
<path d="M24.9144 53.9982V60.1101C18.425 60.1101 13.1732 65.3536 13.1732 71.8329H7.05176C7.05176 61.9804 15.0465 53.9982 24.9144 53.9982Z" fill="#FFDE3E" stroke="#2F3524" stroke-width="0.294085" stroke-miterlimit="10"/>
<path d="M19.2614 71.8329H13.1733C13.1733 65.3536 18.4251 60.1101 24.9145 60.1101V66.1886C21.8036 66.1886 19.2614 68.7268 19.2614 71.8329Z" fill="#5A8E38" stroke="#2F3524" stroke-width="0.294085" stroke-miterlimit="10"/>
<path d="M24.9139 66.1886V71.8329H19.2607C19.2607 68.7268 21.803 66.1886 24.9139 66.1886Z" fill="white" stroke="#2F3524" stroke-width="0.294085" stroke-miterlimit="10"/>
<path d="M72.8323 0.017334L96.8164 0.017334V23.9639L72.8323 23.9639V0.017334Z" fill="#FFDE3E" stroke="#2F3524" stroke-width="0.294085" stroke-miterlimit="10"/>
<path d="M84.8241 21.1343C84.8241 21.1343 78.8364 19.0302 78.8364 14.4881V9.34475C78.8364 8.3762 79.3716 7.44105 80.2079 6.97347L83.3188 5.20336V1.32916H86.2959V5.20336L89.4068 6.97347C90.2766 7.47445 90.7783 8.3762 90.7783 9.34475V14.4881C90.8118 19.0302 84.8241 21.1343 84.8241 21.1343Z" fill="#5A8E38" stroke="#2F3524" stroke-width="0.225347" stroke-miterlimit="10"/>
<path d="M86.8979 2.09735H82.75V0.026659H86.8979V2.09735Z" fill="#AAE882" stroke="#2F3524" stroke-width="0.294085" stroke-miterlimit="10"/>
<path d="M72.8323 -23.9031L96.8164 -23.9031V0.0434284L72.8323 0.0434284V-23.9031Z" fill="#AAE882" stroke="#2F3524" stroke-width="0.294085" stroke-miterlimit="10"/>
<path d="M48.8738 23.9708L72.8579 23.9708V47.9174H48.8738V23.9708Z" fill="#FFDE3E" stroke="#2F3524" stroke-width="0.294085" stroke-miterlimit="10"/>
<path d="M62.4784 43.912C61.6421 44.9139 60.1034 44.9139 59.2671 43.912C57.6949 42.0083 56.6914 39.1694 56.6914 35.9966C56.6914 31.8552 58.3974 28.2816 60.8727 26.5783C63.3481 28.2816 65.0541 31.8552 65.0541 35.9966C65.0541 39.1694 64.0506 42.0083 62.4784 43.912Z" fill="#AAE882" stroke="#2F3524" stroke-width="0.294085" stroke-miterlimit="10"/>
<path d="M60.9063 26.2777C60.1369 28.9495 65.857 33.7255 65.4555 38.0673C70.2055 30.92 65.6563 23.8062 60.9063 26.2777Z" fill="#5A8E38" stroke="#2F3524" stroke-width="0.258855" stroke-miterlimit="10" stroke-linecap="round" stroke-linejoin="round"/>
<path d="M60.7394 26.2777C61.5088 28.9495 55.7887 33.7255 56.1901 38.0673C51.4067 30.92 55.9894 23.8062 60.7394 26.2777Z" fill="#5A8E38" stroke="#2F3524" stroke-width="0.258855" stroke-miterlimit="10" stroke-linecap="round" stroke-linejoin="round"/>
<path d="M64.9879 37.3993C64.9879 36.6311 56.7256 36.5643 56.7256 37.3993" stroke="#2F3524" stroke-width="0.206557" stroke-miterlimit="10"/>
<path d="M63.4151 41.14C63.4151 40.6724 58.3306 40.639 58.3306 41.14" stroke="#2F3524" stroke-width="0.206557" stroke-miterlimit="10" stroke-linecap="round"/>
<path d="M63.4151 32.59C63.4151 32.1225 58.3306 32.0891 58.3306 32.59" stroke="#2F3524" stroke-width="0.206557" stroke-miterlimit="10" stroke-linecap="round"/>
<path d="M60.873 27.2797V44.6468" stroke="#2F3524" stroke-width="0.206557" stroke-miterlimit="10"/>
<path d="M48.8738 0.0172729L72.8579 0.0172729V23.9638L48.8738 23.9638V0.0172729Z" fill="#AAE882" stroke="#2F3524" stroke-width="0.294085" stroke-miterlimit="10"/>
<path d="M52.4771 9.74564C52.5774 7.87533 53.6478 6.07182 55.4207 5.17007C57.227 4.23492 59.2675 4.43531 60.8732 5.43726C60.7728 7.30756 59.7024 9.11107 57.9295 10.0128C56.1232 10.9146 54.0492 10.7476 52.4771 9.74564Z" fill="#5A8E38" stroke="#2F3524" stroke-width="0.225347" stroke-miterlimit="10"/>
<path d="M69.2697 9.74564C69.1693 7.87533 68.0989 6.07182 66.326 5.17007C64.5531 4.26831 62.4792 4.43531 60.8735 5.43726C60.9739 7.30756 62.0443 9.11107 63.8172 10.0128C65.5901 10.9146 67.664 10.7476 69.2697 9.74564Z" fill="#5A8E38" stroke="#2F3524" stroke-width="0.225347" stroke-miterlimit="10"/>
<path d="M55.5879 14.6552C55.6548 13.4862 56.3238 12.3507 57.4611 11.7829C58.5985 11.2151 59.903 11.3153 60.9066 11.9499C60.8397 13.1188 60.1706 14.2544 59.0333 14.8221C57.8625 15.3899 56.558 15.2897 55.5879 14.6552Z" fill="#5A8E38" stroke="#2F3524" stroke-width="0.225347" stroke-miterlimit="10"/>
<path d="M66.159 14.6552C66.0921 13.4862 65.4231 12.3507 64.2857 11.7829C63.1484 11.2151 61.8439 11.3153 60.8403 11.9499C60.9072 13.1188 61.5762 14.2544 62.7136 14.8221C63.8509 15.3899 65.1555 15.2897 66.159 14.6552Z" fill="#5A8E38" stroke="#2F3524" stroke-width="0.225347" stroke-miterlimit="10"/>
<path d="M60.8731 21.5018C61.9101 20.9007 62.5791 19.7985 62.5791 18.5294C62.5791 17.2602 61.8767 16.1581 60.8731 15.5569C59.8362 16.1581 59.1672 17.2602 59.1672 18.5294C59.1337 19.7985 59.8362 20.9007 60.8731 21.5018Z" fill="#5A8E38" stroke="#2F3524" stroke-width="0.225347" stroke-miterlimit="10"/>
<path d="M60.8735 1.83019V15.5569" stroke="#2F3524" stroke-width="0.225347" stroke-miterlimit="10" stroke-linecap="round" stroke-linejoin="round"/>
<path d="M72.8323 47.8911H96.8164V71.8377H72.8323V47.8911Z" fill="#AAE882" stroke="#2F3524" stroke-width="0.294085" stroke-miterlimit="10"/>
<path d="M84.8241 69.0276C84.8241 69.0276 78.8364 66.9235 78.8364 62.3813V57.238C78.8364 56.2694 79.3716 55.3343 80.2079 54.8667L83.3188 53.0966V49.2224H86.2959V53.0966L89.4068 54.8667C90.2766 55.3677 90.7783 56.2694 90.7783 57.238V62.3813C90.8118 66.8901 84.8241 69.0276 84.8241 69.0276Z" fill="#FFDE3E" stroke="#2F3524" stroke-width="0.225347" stroke-miterlimit="10"/>
<path d="M86.8979 49.9572H82.75V47.8865H86.8979V49.9572Z" fill="white" stroke="#2F3524" stroke-width="0.225347" stroke-miterlimit="10"/>
<path d="M48.8738 47.8911H72.8579V71.8377H48.8738V47.8911Z" fill="#FFDE3E" stroke="#2F3524" stroke-width="0.294085" stroke-miterlimit="10"/>
<path d="M60.8724 69.0276C60.8724 69.0276 54.8848 66.9235 54.8848 62.3813V57.238C54.8848 56.2694 55.42 55.3343 56.2562 54.8667L59.3672 53.0966V49.2224H62.3443V53.0966L65.4552 54.8667C66.3249 55.3677 66.8267 56.2694 66.8267 57.238V62.3813C66.8267 66.8901 60.8724 69.0276 60.8724 69.0276Z" fill="#5A8E38" stroke="#2F3524" stroke-width="0.225347" stroke-miterlimit="10"/>
<path d="M62.9472 49.9572H58.7993V47.8865H62.9472V49.9572Z" fill="#AAE882" stroke="#2F3524" stroke-width="0.294085" stroke-miterlimit="10"/>
<path d="M24.8826 71.8378H48.8667V47.8912H24.8826L24.8826 71.8378Z" fill="#AAE882" stroke="#2F3524" stroke-width="0.294085" stroke-miterlimit="10"/>
<path d="M28.4927 62.1236C28.593 63.9939 29.6634 65.7974 31.4363 66.6991C33.2092 67.6009 35.2832 67.4339 36.8888 66.4319C36.7884 64.5616 35.718 62.7581 33.9451 61.8564C32.1388 60.9546 30.0649 61.1216 28.4927 62.1236Z" fill="#5A8E38" stroke="#2F3524" stroke-width="0.225347" stroke-miterlimit="10"/>
<path d="M45.2848 62.1236C45.1844 63.9939 44.114 65.7974 42.3411 66.6991C40.5682 67.6009 38.4609 67.4673 36.8887 66.4319C36.989 64.5616 38.0594 62.7581 39.8323 61.8564C41.6387 60.9546 43.7126 61.1216 45.2848 62.1236Z" fill="#5A8E38" stroke="#2F3524" stroke-width="0.225347" stroke-miterlimit="10"/>
<path d="M31.6035 57.2141C31.6704 58.3831 32.3394 59.5186 33.4768 60.0864C34.6141 60.6541 35.9187 60.5539 36.9222 59.9194C36.8553 58.7504 36.1863 57.6149 35.0489 57.0471C33.9116 56.4793 32.607 56.5795 31.6035 57.2141Z" fill="#5A8E38" stroke="#2F3524" stroke-width="0.225347" stroke-miterlimit="10"/>
<path d="M42.1736 57.2141C42.1067 58.3831 41.4377 59.5186 40.3004 60.0864C39.1631 60.6541 37.8585 60.5539 36.855 59.9194C36.9219 58.7504 37.5909 57.6149 38.7282 57.0471C39.8655 56.4793 41.1701 56.5795 42.1736 57.2141Z" fill="#5A8E38" stroke="#2F3524" stroke-width="0.225347" stroke-miterlimit="10"/>
<path d="M36.8886 50.3674C37.9256 50.9685 38.5946 52.0707 38.5946 53.3398C38.5946 54.609 37.8921 55.7111 36.8886 56.3123C35.8516 55.7111 35.1826 54.609 35.1826 53.3398C35.1826 52.0707 35.8516 50.9685 36.8886 50.3674Z" fill="#5A8E38" stroke="#2F3524" stroke-width="0.225347" stroke-miterlimit="10"/>
<path d="M36.8887 70.0389V56.3123" stroke="#2F3524" stroke-width="0.225347" stroke-miterlimit="10" stroke-linecap="round" stroke-linejoin="round"/>
<path d="M72.8323 23.9709L96.8164 23.9709V47.9174H72.8323V23.9709Z" fill="#AAE882" stroke="#2F3524" stroke-width="0.294085" stroke-miterlimit="10"/>
<path d="M85.1921 40.2716C85.1921 40.2716 85.627 42.8767 83.252 44.4464" stroke="#2F3524" stroke-width="0.225347" stroke-miterlimit="10" stroke-linecap="round" stroke-linejoin="round"/>
<path d="M92.4508 35.0282C92.4508 30.82 89.0388 27.4134 84.824 27.4134C80.6092 27.4134 77.1973 30.82 77.1973 35.0282C77.1973 39.2364 80.6092 41.3738 84.824 41.3738C89.0388 41.3738 92.4508 39.2364 92.4508 35.0282Z" fill="#5A8E38" stroke="#2F3524" stroke-width="0.225347" stroke-miterlimit="10"/>
<path d="M90.5782 43.0437C90.4109 41.8747 89.675 40.806 88.5042 40.305C87.3335 39.8041 86.0289 40.0378 85.0923 40.7392C85.2595 41.9081 85.9954 42.9769 87.1662 43.4779C88.337 43.9454 89.6416 43.7451 90.5782 43.0437Z" fill="#AAE882" stroke="#2F3524" stroke-width="0.225347" stroke-miterlimit="10"/>
</g>
<defs>
<clipPath id="clip0_2273_14176">
<rect width="96.2376" height="120" fill="white" transform="matrix(1 0 0 -1 0.762207 72)"/>
</clipPath>
</defs>
</svg>
